<mxfile host="app.diagrams.net" modified="2020-11-16T07:40:17.569Z" agent="5.0 (Windows NT 10.0; Win64; x64) AppleWebKit/537.36 (KHTML, like Gecko) Chrome/85.0.4183.102 Safari/537.36" etag="IfmjxtMrT5RX7-cNe9Y0" version="13.9.9" type="github">
  <diagram id="rgQWCEvg1JA4o74-iTJb" name="Page-1">
    <mxGraphModel dx="1422" dy="802" grid="1" gridSize="10" guides="1" tooltips="1" connect="1" arrows="1" fold="1" page="1" pageScale="1" pageWidth="827" pageHeight="1169" math="0" shadow="0">
      <root>
        <mxCell id="0" />
        <mxCell id="1" parent="0" />
        <mxCell id="CysU0X-Y_s4nkYIYZkuV-1" value="Pool" style="swimlane;html=1;childLayout=stackLayout;resizeParent=1;resizeParentMax=0;startSize=20;" vertex="1" parent="1">
          <mxGeometry x="110" y="30" width="360" height="580" as="geometry" />
        </mxCell>
        <mxCell id="CysU0X-Y_s4nkYIYZkuV-2" value="Lane 1" style="swimlane;html=1;startSize=20;" vertex="1" parent="CysU0X-Y_s4nkYIYZkuV-1">
          <mxGeometry y="20" width="120" height="560" as="geometry" />
        </mxCell>
        <mxCell id="CysU0X-Y_s4nkYIYZkuV-3" value="Lane 2" style="swimlane;html=1;startSize=20;" vertex="1" parent="CysU0X-Y_s4nkYIYZkuV-1">
          <mxGeometry x="120" y="20" width="120" height="560" as="geometry" />
        </mxCell>
        <mxCell id="CysU0X-Y_s4nkYIYZkuV-4" value="Lane 3" style="swimlane;html=1;startSize=20;" vertex="1" parent="CysU0X-Y_s4nkYIYZkuV-1">
          <mxGeometry x="240" y="20" width="120" height="560" as="geometry" />
        </mxCell>
      </root>
    </mxGraphModel>
  </diagram>
</mxfile>
